<svg viewBox="344.064 346.112 325.632 235.52" version="1.1" xmlns="http://www.w3.org/2000/svg" style="max-height: 500px" width="325.632" height="235.52">
<path d="M 353.06 573.49&#10;  L 357.20 571.48&#10;  L 363.88 569.08&#10;  L 367.52 567.81&#10;  L 421.47 546.89&#10;  L 447.99 536.01&#10;  L 474.06 524.75&#10;  L 481.70 521.04&#10;  L 489.72 516.48&#10;  L 494.72 513.20&#10;  L 498.49 510.10&#10;  L 501.31 506.96&#10;  L 502.36 505.39&#10;  L 503.20 503.74&#10;  L 503.74 502.22&#10;  L 504.04 500.81&#10;  L 504.10 499.39&#10;  L 503.92 498.08&#10;  L 503.52 496.88&#10;  L 502.93 495.77&#10;  L 501.11 493.64&#10;  L 498.38 491.62&#10;  L 494.69 489.66&#10;  L 488.84 487.19&#10;  L 482.03 484.79&#10;  L 449.97 474.30&#10;  L 440.17 470.79&#10;  L 426.49 465.51&#10;  L 416.48 461.23&#10;  L 406.87 456.46&#10;  L 397.67 451.20&#10;  L 388.88 445.44&#10;  L 385.68 443.02&#10;  L 382.41 440.16&#10;  L 379.06 436.88&#10;  L 375.64 433.16&#10;  L 372.53 429.30&#10;  L 370.02 425.43&#10;  L 368.11 421.57&#10;  L 366.79 417.70&#10;  L 366.00 413.54&#10;  L 365.83 409.31&#10;  L 366.18 405.74&#10;  L 366.98 402.27&#10;  L 368.20 398.86&#10;  L 369.90 395.39&#10;  L 372.01 392.01&#10;  L 374.61 388.63&#10;  L 377.56 385.38&#10;  L 380.95 382.18&#10;  L 387.04 377.19&#10;  L 393.51 372.59&#10;  L 400.36 368.39&#10;  L 407.59 364.58&#10;  L 421.37 358.05&#10;  L 431.48 353.69&#10;  L 433.67 352.96&#10;  L 436.08 352.43&#10;  L 438.70 352.09&#10;  L 441.53 351.94&#10;  L 470.54 351.34&#10;  L 473.43 351.26&#10;  L 490.74 350.88&#10;  L 507.25 351.18&#10;  L 507.87 351.29&#10;  L 508.20 351.56&#10;  L 508.27 351.99&#10;  L 508.05 352.58&#10;  L 507.48 353.13&#10;  L 506.39 353.59&#10;  L 491.91 358.37&#10;  L 477.81 363.83&#10;  L 464.07 369.98&#10;  L 450.71 376.81&#10;  L 450.71 376.81&#10;  L 443.73 380.73&#10;  L 437.95 384.39&#10;  L 432.78 388.25&#10;  L 428.33 392.24&#10;  L 424.66 396.31&#10;  L 421.92 400.30&#10;  L 420.04 404.29&#10;  L 419.44 406.23&#10;  L 419.05 408.19&#10;  L 418.88 410.09&#10;  L 418.93 412.01&#10;  L 419.30 414.36&#10;  L 420.03 416.73&#10;  L 421.09 419.03&#10;  L 422.53 421.35&#10;  L 424.10 423.41&#10;  L 427.26 426.77&#10;  L 430.90 429.74&#10;  L 436.57 433.55&#10;  L 442.63 437.16&#10;  L 449.08 440.57&#10;  L 455.92 443.78&#10;  L 470.38 449.86&#10;  L 484.85 455.32&#10;  L 516.22 465.81&#10;  L 523.53 468.51&#10;  L 530.51 471.64&#10;  L 537.17 475.22&#10;  L 543.50 479.23&#10;  L 545.96 481.07&#10;  L 548.30 483.14&#10;  L 550.53 485.44&#10;  L 552.64 487.96&#10;  L 553.78 489.60&#10;  L 554.71 491.35&#10;  L 554.71 491.35&#10;  L 555.57 493.62&#10;  L 556.11 496.04&#10;  L 556.33 498.61&#10;  L 556.23 501.32&#10;  L 556.16 501.94&#10;  L 555.56 505.06&#10;  L 554.47 508.20&#10;  L 552.97 511.18&#10;  L 550.99 514.15&#10;  L 548.57 517.03&#10;  L 545.73 519.84&#10;  L 542.39 522.62&#10;  L 538.64 525.32&#10;  L 532.02 529.58&#10;  L 525.13 533.67&#10;  L 517.98 537.56&#10;  L 510.55 541.28&#10;  L 496.01 548.04&#10;  L 479.46 555.32&#10;  L 460.88 563.14&#10;  L 440.28 571.49&#10;  L 436.85 572.71&#10;  L 433.60 573.57&#10;  L 430.51 574.07&#10;  L 427.59 574.21&#10;  L 398.02 574.00&#10;  L 360.50 574.10&#10;  L 353.19 573.99&#10;  L 352.70 573.85&#10;  L 353.06 573.49&#10;  Z" fill="#ffffff"/>
<path d="M 501.00 410.72&#10;  L 501.51 412.13&#10;  L 502.28 413.42&#10;  L 503.30 414.63&#10;  L 504.67 415.85&#10;  L 508.18 418.05&#10;  L 512.92 420.06&#10;  L 524.36 423.94&#10;  L 531.12 425.94&#10;  L 548.74 430.99&#10;  L 564.08 435.60&#10;  L 577.13 439.75&#10;  L 587.90 443.45&#10;  L 598.83 447.64&#10;  L 609.26 452.15&#10;  L 619.17 456.97&#10;  L 628.58 462.10&#10;  L 633.54 465.17&#10;  L 638.24 468.51&#10;  L 642.67 472.11&#10;  L 646.84 475.98&#10;  L 647.26 476.40&#10;  L 651.04 480.53&#10;  L 654.14 484.64&#10;  L 656.54 488.72&#10;  L 658.25 492.78&#10;  L 659.41 496.97&#10;  L 660.06 501.22&#10;  L 660.06 501.22&#10;  L 660.06 501.22&#10;  L 660.06 501.22&#10;  L 660.23 505.04&#10;  L 659.99 508.90&#10;  L 659.36 512.80&#10;  L 658.33 516.74&#10;  L 657.21 519.77&#10;  L 655.65 523.02&#10;  L 653.76 526.25&#10;  L 651.48 529.59&#10;  L 648.90 532.88&#10;  L 646.01 536.15&#10;  L 642.97 539.19&#10;  L 639.90 541.90&#10;  L 633.04 547.34&#10;  L 626.95 551.67&#10;  L 616.80 558.04&#10;  L 606.57 563.77&#10;  L 596.28 568.84&#10;  L 585.92 573.27&#10;  L 583.86 573.92&#10;  L 581.69 574.08&#10;  L 539.21 574.01&#10;  L 516.50 574.13&#10;  L 506.86 574.15&#10;  L 497.03 573.89&#10;  L 496.63 573.75&#10;  L 496.83 573.37&#10;  L 497.90 572.63&#10;  L 498.59 572.36&#10;  L 506.71 569.88&#10;  L 513.48 567.41&#10;  L 527.12 561.67&#10;  L 539.37 556.03&#10;  L 549.40 550.80&#10;  L 559.19 544.89&#10;  L 568.75 538.31&#10;  L 578.06 531.05&#10;  L 582.17 527.47&#10;  L 586.09 523.67&#10;  L 589.82 519.63&#10;  L 593.36 515.37&#10;  L 595.09 512.99&#10;  L 596.75 510.24&#10;  L 598.18 507.34&#10;  L 599.38 504.28&#10;  L 600.34 501.07&#10;  L 600.93 497.49&#10;  L 600.86 494.00&#10;  L 600.86 494.00&#10;  L 600.26 491.05&#10;  L 599.16 488.16&#10;  L 597.54 485.06&#10;  L 595.70 482.18&#10;  L 593.65 479.52&#10;  L 591.37 477.09&#10;  L 591.37 477.09&#10;  L 591.37 477.09&#10;  L 588.21 474.35&#10;  L 582.41 470.20&#10;  L 576.25 466.37&#10;  L 569.74 462.87&#10;  L 562.88 459.70&#10;  L 549.17 454.14&#10;  L 533.94 448.54&#10;  L 503.46 437.84&#10;  L 492.18 433.63&#10;  L 483.10 429.69&#10;  L 478.82 427.33&#10;  L 473.16 423.64&#10;  L 469.59 420.73&#10;  L 466.39 417.27&#10;  L 464.21 413.97&#10;  L 463.53 412.43&#10;  L 463.10 410.91&#10;  L 462.78 407.67&#10;  L 463.07 404.47&#10;  L 464.08 401.18&#10;  L 465.83 398.00&#10;  L 468.34 394.90&#10;  L 471.60 391.95&#10;  L 476.20 388.56&#10;  L 481.29 385.34&#10;  L 486.85 382.28&#10;  L 492.90 379.40&#10;  L 506.17 373.77&#10;  L 518.94 368.92&#10;  L 563.14 353.36&#10;  L 565.36 352.73&#10;  L 567.91 352.28&#10;  L 573.98 351.90&#10;  L 634.00 351.99&#10;  L 635.65 352.10&#10;  L 636.24 352.39&#10;  L 635.78 352.87&#10;  L 634.27 353.53&#10;  L 532.95 390.96&#10;  L 525.95 393.67&#10;  L 519.46 396.45&#10;  L 513.48 399.29&#10;  L 508.02 402.20&#10;  L 506.43 403.22&#10;  L 504.99 404.39&#10;  L 504.99 404.39&#10;  L 502.82 406.82&#10;  L 501.10 409.72&#10;  L 500.96 410.19&#10;  L 501.00 410.72&#10;  Z" fill="#ffffff"/>
</svg>