<?xml version="1.0" encoding="UTF-8" standalone="no"?>
<!DOCTYPE svg PUBLIC "-//W3C//DTD SVG 1.1//EN" "http://www.w3.org/Graphics/SVG/1.1/DTD/svg11.dtd">
<svg xmlns="http://www.w3.org/2000/svg" version="1.1" viewBox="0.00 0.00 1024.00 1024.00">
<path fill="#ffffff" d="
  M 353.06 573.49
  L 357.20 571.48
  L 363.88 569.08
  L 367.52 567.81
  L 421.47 546.89
  L 447.99 536.01
  L 474.06 524.75
  L 481.70 521.04
  L 489.72 516.48
  L 494.72 513.20
  L 498.49 510.10
  L 501.31 506.96
  L 502.36 505.39
  L 503.20 503.74
  L 503.74 502.22
  L 504.04 500.81
  L 504.10 499.39
  L 503.92 498.08
  L 503.52 496.88
  L 502.93 495.77
  L 501.11 493.64
  L 498.38 491.62
  L 494.69 489.66
  L 488.84 487.19
  L 482.03 484.79
  L 449.97 474.30
  L 440.17 470.79
  L 426.49 465.51
  L 416.48 461.23
  L 406.87 456.46
  L 397.67 451.20
  L 388.88 445.44
  L 385.68 443.02
  L 382.41 440.16
  L 379.06 436.88
  L 375.64 433.16
  L 372.53 429.30
  L 370.02 425.43
  L 368.11 421.57
  L 366.79 417.70
  L 366.00 413.54
  L 365.83 409.31
  L 366.18 405.74
  L 366.98 402.27
  L 368.20 398.86
  L 369.90 395.39
  L 372.01 392.01
  L 374.61 388.63
  L 377.56 385.38
  L 380.95 382.18
  L 387.04 377.19
  L 393.51 372.59
  L 400.36 368.39
  L 407.59 364.58
  L 421.37 358.05
  L 431.48 353.69
  L 433.67 352.96
  L 436.08 352.43
  L 438.70 352.09
  L 441.53 351.94
  L 470.54 351.34
  L 473.43 351.26
  L 490.74 350.88
  L 507.25 351.18
  L 507.87 351.29
  L 508.20 351.56
  L 508.27 351.99
  L 508.05 352.58
  L 507.48 353.13
  L 506.39 353.59
  L 491.91 358.37
  L 477.81 363.83
  L 464.07 369.98
  L 450.71 376.81
  L 450.71 376.81
  L 443.73 380.73
  L 437.95 384.39
  L 432.78 388.25
  L 428.33 392.24
  L 424.66 396.31
  L 421.92 400.30
  L 420.04 404.29
  L 419.44 406.23
  L 419.05 408.19
  L 418.88 410.09
  L 418.93 412.01
  L 419.30 414.36
  L 420.03 416.73
  L 421.09 419.03
  L 422.53 421.35
  L 424.10 423.41
  L 427.26 426.77
  L 430.90 429.74
  L 436.57 433.55
  L 442.63 437.16
  L 449.08 440.57
  L 455.92 443.78
  L 470.38 449.86
  L 484.85 455.32
  L 516.22 465.81
  L 523.53 468.51
  L 530.51 471.64
  L 537.17 475.22
  L 543.50 479.23
  L 545.96 481.07
  L 548.30 483.14
  L 550.53 485.44
  L 552.64 487.96
  L 553.78 489.60
  L 554.71 491.35
  L 554.71 491.35
  L 555.57 493.62
  L 556.11 496.04
  L 556.33 498.61
  L 556.23 501.32
  L 556.16 501.94
  L 555.56 505.06
  L 554.47 508.20
  L 552.97 511.18
  L 550.99 514.15
  L 548.57 517.03
  L 545.73 519.84
  L 542.39 522.62
  L 538.64 525.32
  L 532.02 529.58
  L 525.13 533.67
  L 517.98 537.56
  L 510.55 541.28
  L 496.01 548.04
  L 479.46 555.32
  L 460.88 563.14
  L 440.28 571.49
  L 436.85 572.71
  L 433.60 573.57
  L 430.51 574.07
  L 427.59 574.21
  L 398.02 574.00
  L 360.50 574.10
  L 353.19 573.99
  L 352.70 573.85
  L 353.06 573.49
  Z"
/>
<path fill="#ffffff" d="
  M 501.00 410.72
  L 501.51 412.13
  L 502.28 413.42
  L 503.30 414.63
  L 504.67 415.85
  L 508.18 418.05
  L 512.92 420.06
  L 524.36 423.94
  L 531.12 425.94
  L 548.74 430.99
  L 564.08 435.60
  L 577.13 439.75
  L 587.90 443.45
  L 598.83 447.64
  L 609.26 452.15
  L 619.17 456.97
  L 628.58 462.10
  L 633.54 465.17
  L 638.24 468.51
  L 642.67 472.11
  L 646.84 475.98
  L 647.26 476.40
  L 651.04 480.53
  L 654.14 484.64
  L 656.54 488.72
  L 658.25 492.78
  L 659.41 496.97
  L 660.06 501.22
  L 660.06 501.22
  L 660.06 501.22
  L 660.06 501.22
  L 660.23 505.04
  L 659.99 508.90
  L 659.36 512.80
  L 658.33 516.74
  L 657.21 519.77
  L 655.65 523.02
  L 653.76 526.25
  L 651.48 529.59
  L 648.90 532.88
  L 646.01 536.15
  L 642.97 539.19
  L 639.90 541.90
  L 633.04 547.34
  L 626.95 551.67
  L 616.80 558.04
  L 606.57 563.77
  L 596.28 568.84
  L 585.92 573.27
  L 583.86 573.92
  L 581.69 574.08
  L 539.21 574.01
  L 516.50 574.13
  L 506.86 574.15
  L 497.03 573.89
  L 496.63 573.75
  L 496.83 573.37
  L 497.90 572.63
  L 498.59 572.36
  L 506.71 569.88
  L 513.48 567.41
  L 527.12 561.67
  L 539.37 556.03
  L 549.40 550.80
  L 559.19 544.89
  L 568.75 538.31
  L 578.06 531.05
  L 582.17 527.47
  L 586.09 523.67
  L 589.82 519.63
  L 593.36 515.37
  L 595.09 512.99
  L 596.75 510.24
  L 598.18 507.34
  L 599.38 504.28
  L 600.34 501.07
  L 600.93 497.49
  L 600.86 494.00
  L 600.86 494.00
  L 600.26 491.05
  L 599.16 488.16
  L 597.54 485.06
  L 595.70 482.18
  L 593.65 479.52
  L 591.37 477.09
  L 591.37 477.09
  L 591.37 477.09
  L 588.21 474.35
  L 582.41 470.20
  L 576.25 466.37
  L 569.74 462.87
  L 562.88 459.70
  L 549.17 454.14
  L 533.94 448.54
  L 503.46 437.84
  L 492.18 433.63
  L 483.10 429.69
  L 478.82 427.33
  L 473.16 423.64
  L 469.59 420.73
  L 466.39 417.27
  L 464.21 413.97
  L 463.53 412.43
  L 463.10 410.91
  L 462.78 407.67
  L 463.07 404.47
  L 464.08 401.18
  L 465.83 398.00
  L 468.34 394.90
  L 471.60 391.95
  L 476.20 388.56
  L 481.29 385.34
  L 486.85 382.28
  L 492.90 379.40
  L 506.17 373.77
  L 518.94 368.92
  L 563.14 353.36
  L 565.36 352.73
  L 567.91 352.28
  L 573.98 351.90
  L 634.00 351.99
  L 635.65 352.10
  L 636.24 352.39
  L 635.78 352.87
  L 634.27 353.53
  L 532.95 390.96
  L 525.95 393.67
  L 519.46 396.45
  L 513.48 399.29
  L 508.02 402.20
  L 506.43 403.22
  L 504.99 404.39
  L 504.99 404.39
  L 502.82 406.82
  L 501.10 409.72
  L 500.96 410.19
  L 501.00 410.72
  Z"
/>
</svg>
