<?xml version="1.0" encoding="UTF-8" standalone="no"?>
<!DOCTYPE svg PUBLIC "-//W3C//DTD SVG 1.1//EN" "http://www.w3.org/Graphics/SVG/1.1/DTD/svg11.dtd">
<svg xmlns="http://www.w3.org/2000/svg" version="1.1" viewBox="0.00 0.00 1024.00 1024.00">
<path fill="#000000" d="
  M 473.87 351.39
  L 489.82 350.96
  L 507.37 351.12
  L 507.42 351.12
  L 507.95 351.41
  L 508.10 352.00
  L 507.44 353.07
  L 507.44 353.07
  L 506.39 353.62
  L 501.20 355.09
  L 494.99 357.24
  L 480.29 362.76
  L 470.04 367.12
  L 460.00 371.90
  L 460.00 371.90
  L 460.00 371.90
  L 450.62 376.84
  L 441.44 382.15
  L 437.35 384.81
  L 433.49 387.67
  L 430.06 390.58
  L 427.19 393.42
  L 424.31 396.81
  L 422.07 400.04
  L 420.47 403.15
  L 419.45 406.23
  L 418.93 409.83
  L 419.12 413.31
  L 419.12 413.31
  L 419.62 415.52
  L 420.41 417.67
  L 421.50 419.78
  L 422.89 421.84
  L 426.18 425.63
  L 430.04 429.01
  L 436.75 433.72
  L 443.75 437.80
  L 455.04 443.41
  L 465.39 447.85
  L 476.83 452.30
  L 488.30 456.55
  L 516.19 465.81
  L 522.12 468.01
  L 529.44 471.17
  L 535.19 474.02
  L 540.45 477.14
  L 545.21 480.55
  L 549.47 484.24
  L 551.78 486.75
  L 553.59 489.37
  L 554.97 492.17
  L 555.86 495.04
  L 556.29 498.20
  L 556.21 501.36
  L 555.62 504.63
  L 554.55 507.83
  L 552.96 511.06
  L 550.94 514.15
  L 548.45 517.12
  L 545.61 519.85
  L 541.09 523.54
  L 537.27 526.26
  L 529.84 530.86
  L 522.20 535.23
  L 514.36 539.37
  L 506.31 543.27
  L 490.39 550.53
  L 477.12 556.30
  L 441.64 570.87
  L 436.70 572.81
  L 434.20 573.51
  L 431.50 573.84
  L 421.25 574.04
  L 353.30 573.92
  L 353.00 573.84
  L 353.19 573.59
  L 354.87 572.47
  L 356.33 571.79
  L 367.90 567.68
  L 420.00 547.50
  L 438.53 539.96
  L 465.77 528.55
  L 468.27 527.36
  L 471.42 525.89
  L 477.75 523.10
  L 483.88 519.95
  L 483.88 519.95
  L 483.88 519.95
  L 489.52 516.62
  L 494.98 512.96
  L 497.19 511.24
  L 499.16 509.42
  L 500.88 507.49
  L 502.22 505.60
  L 503.17 503.79
  L 503.80 501.94
  L 504.04 500.19
  L 503.90 498.45
  L 503.41 496.86
  L 502.53 495.30
  L 501.30 493.85
  L 499.67 492.44
  L 495.92 490.23
  L 490.17 487.72
  L 478.02 483.30
  L 463.27 478.57
  L 454.01 475.62
  L 444.42 472.31
  L 434.50 468.61
  L 424.25 464.55
  L 417.76 461.75
  L 411.22 458.63
  L 404.63 455.18
  L 397.99 451.40
  L 390.90 446.88
  L 385.32 442.63
  L 379.60 437.33
  L 374.24 431.52
  L 372.47 429.23
  L 370.80 426.64
  L 369.26 423.76
  L 367.82 420.58
  L 367.05 418.45
  L 366.47 416.21
  L 366.09 413.87
  L 365.89 411.42
  L 366.10 406.74
  L 367.07 402.24
  L 368.09 399.31
  L 369.34 396.50
  L 369.34 396.50
  L 370.72 393.98
  L 372.30 391.55
  L 374.08 389.23
  L 376.06 387.00
  L 382.05 381.26
  L 382.05 381.26
  L 388.64 375.95
  L 395.73 371.21
  L 404.76 366.09
  L 414.03 361.55
  L 426.71 355.71
  L 430.33 354.11
  L 433.79 352.90
  L 437.15 352.24
  L 441.27 352.02
  L 454.60 351.83
  L 469.50 351.23
  L 471.56 351.31
  L 473.87 351.39
  Z"
/>
<path fill="#000000" d="
  M 501.34 409.06
  L 501.03 410.16
  L 501.11 411.32
  L 501.56 412.46
  L 502.36 413.62
  L 503.58 414.85
  L 505.23 416.14
  L 507.21 417.40
  L 511.70 419.57
  L 520.09 422.55
  L 528.78 425.24
  L 539.69 428.38
  L 547.94 430.83
  L 561.50 434.75
  L 571.02 437.73
  L 585.79 442.74
  L 596.33 446.64
  L 606.57 450.93
  L 616.51 455.62
  L 626.15 460.69
  L 632.86 464.76
  L 639.58 469.50
  L 644.70 473.91
  L 650.38 479.84
  L 652.84 482.82
  L 654.91 485.83
  L 656.60 488.87
  L 657.91 491.94
  L 658.94 495.22
  L 659.67 498.49
  L 660.11 501.76
  L 660.24 505.03
  L 660.24 505.03
  L 660.24 505.03
  L 660.04 508.61
  L 659.49 512.19
  L 658.57 515.77
  L 657.30 519.35
  L 655.33 523.47
  L 652.70 527.71
  L 649.44 532.06
  L 645.52 536.53
  L 641.60 540.40
  L 637.07 544.29
  L 631.92 548.20
  L 626.16 552.13
  L 615.81 558.53
  L 605.56 564.22
  L 595.40 569.22
  L 585.32 573.51
  L 583.01 573.89
  L 561.12 574.03
  L 513.07 573.95
  L 500.08 573.91
  L 497.68 573.79
  L 496.83 573.45
  L 497.54 572.88
  L 499.82 572.09
  L 506.36 570.02
  L 513.01 567.63
  L 519.78 564.91
  L 526.67 561.88
  L 535.72 557.76
  L 544.68 553.47
  L 554.82 547.69
  L 564.42 541.44
  L 573.50 534.73
  L 582.05 527.55
  L 584.92 524.84
  L 587.82 521.81
  L 593.17 515.67
  L 595.89 511.73
  L 598.05 507.68
  L 599.66 503.54
  L 600.70 499.29
  L 600.70 499.29
  L 601.06 496.76
  L 601.07 494.96
  L 600.78 492.98
  L 600.17 490.83
  L 599.25 488.49
  L 597.63 485.26
  L 597.63 485.26
  L 595.40 481.78
  L 592.78 478.52
  L 590.95 476.66
  L 588.77 474.75
  L 583.32 470.75
  L 578.92 467.94
  L 574.41 465.31
  L 574.41 465.31
  L 567.45 461.70
  L 560.26 458.49
  L 546.77 453.19
  L 531.49 447.65
  L 500.81 436.88
  L 489.69 432.56
  L 480.85 428.43
  L 475.84 425.43
  L 470.70 421.64
  L 469.09 420.16
  L 467.39 418.28
  L 466.38 417.11
  L 464.62 414.93
  L 463.75 413.19
  L 463.18 410.95
  L 462.89 408.78
  L 462.86 406.60
  L 463.12 404.50
  L 463.94 401.64
  L 465.28 398.94
  L 467.17 396.29
  L 469.55 393.80
  L 474.08 390.05
  L 479.43 386.45
  L 484.68 383.46
  L 490.78 380.40
  L 497.74 377.28
  L 505.55 374.09
  L 531.03 364.60
  L 562.65 353.65
  L 567.72 352.34
  L 570.16 352.02
  L 572.52 351.91
  L 635.16 352.09
  L 635.72 352.15
  L 635.97 352.34
  L 635.90 352.64
  L 635.52 353.07
  L 634.62 353.59
  L 633.10 354.04
  L 631.66 354.45
  L 531.60 391.36
  L 522.22 395.21
  L 510.93 400.55
  L 507.68 402.42
  L 504.89 404.55
  L 502.79 406.76
  L 501.34 409.06
  Z"
/>
</svg>
