<svg viewBox="344.064 346.112 323.584 237.568" version="1.1" xmlns="http://www.w3.org/2000/svg" style="max-height: 500px" width="323.584" height="237.568">
<path d="M 473.87 351.39&#10;  L 489.82 350.96&#10;  L 507.37 351.12&#10;  L 507.42 351.12&#10;  L 507.95 351.41&#10;  L 508.10 352.00&#10;  L 507.44 353.07&#10;  L 507.44 353.07&#10;  L 506.39 353.62&#10;  L 501.20 355.09&#10;  L 494.99 357.24&#10;  L 480.29 362.76&#10;  L 470.04 367.12&#10;  L 460.00 371.90&#10;  L 460.00 371.90&#10;  L 460.00 371.90&#10;  L 450.62 376.84&#10;  L 441.44 382.15&#10;  L 437.35 384.81&#10;  L 433.49 387.67&#10;  L 430.06 390.58&#10;  L 427.19 393.42&#10;  L 424.31 396.81&#10;  L 422.07 400.04&#10;  L 420.47 403.15&#10;  L 419.45 406.23&#10;  L 418.93 409.83&#10;  L 419.12 413.31&#10;  L 419.12 413.31&#10;  L 419.62 415.52&#10;  L 420.41 417.67&#10;  L 421.50 419.78&#10;  L 422.89 421.84&#10;  L 426.18 425.63&#10;  L 430.04 429.01&#10;  L 436.75 433.72&#10;  L 443.75 437.80&#10;  L 455.04 443.41&#10;  L 465.39 447.85&#10;  L 476.83 452.30&#10;  L 488.30 456.55&#10;  L 516.19 465.81&#10;  L 522.12 468.01&#10;  L 529.44 471.17&#10;  L 535.19 474.02&#10;  L 540.45 477.14&#10;  L 545.21 480.55&#10;  L 549.47 484.24&#10;  L 551.78 486.75&#10;  L 553.59 489.37&#10;  L 554.97 492.17&#10;  L 555.86 495.04&#10;  L 556.29 498.20&#10;  L 556.21 501.36&#10;  L 555.62 504.63&#10;  L 554.55 507.83&#10;  L 552.96 511.06&#10;  L 550.94 514.15&#10;  L 548.45 517.12&#10;  L 545.61 519.85&#10;  L 541.09 523.54&#10;  L 537.27 526.26&#10;  L 529.84 530.86&#10;  L 522.20 535.23&#10;  L 514.36 539.37&#10;  L 506.31 543.27&#10;  L 490.39 550.53&#10;  L 477.12 556.30&#10;  L 441.64 570.87&#10;  L 436.70 572.81&#10;  L 434.20 573.51&#10;  L 431.50 573.84&#10;  L 421.25 574.04&#10;  L 353.30 573.92&#10;  L 353.00 573.84&#10;  L 353.19 573.59&#10;  L 354.87 572.47&#10;  L 356.33 571.79&#10;  L 367.90 567.68&#10;  L 420.00 547.50&#10;  L 438.53 539.96&#10;  L 465.77 528.55&#10;  L 468.27 527.36&#10;  L 471.42 525.89&#10;  L 477.75 523.10&#10;  L 483.88 519.95&#10;  L 483.88 519.95&#10;  L 483.88 519.95&#10;  L 489.52 516.62&#10;  L 494.98 512.96&#10;  L 497.19 511.24&#10;  L 499.16 509.42&#10;  L 500.88 507.49&#10;  L 502.22 505.60&#10;  L 503.17 503.79&#10;  L 503.80 501.94&#10;  L 504.04 500.19&#10;  L 503.90 498.45&#10;  L 503.41 496.86&#10;  L 502.53 495.30&#10;  L 501.30 493.85&#10;  L 499.67 492.44&#10;  L 495.92 490.23&#10;  L 490.17 487.72&#10;  L 478.02 483.30&#10;  L 463.27 478.57&#10;  L 454.01 475.62&#10;  L 444.42 472.31&#10;  L 434.50 468.61&#10;  L 424.25 464.55&#10;  L 417.76 461.75&#10;  L 411.22 458.63&#10;  L 404.63 455.18&#10;  L 397.99 451.40&#10;  L 390.90 446.88&#10;  L 385.32 442.63&#10;  L 379.60 437.33&#10;  L 374.24 431.52&#10;  L 372.47 429.23&#10;  L 370.80 426.64&#10;  L 369.26 423.76&#10;  L 367.82 420.58&#10;  L 367.05 418.45&#10;  L 366.47 416.21&#10;  L 366.09 413.87&#10;  L 365.89 411.42&#10;  L 366.10 406.74&#10;  L 367.07 402.24&#10;  L 368.09 399.31&#10;  L 369.34 396.50&#10;  L 369.34 396.50&#10;  L 370.72 393.98&#10;  L 372.30 391.55&#10;  L 374.08 389.23&#10;  L 376.06 387.00&#10;  L 382.05 381.26&#10;  L 382.05 381.26&#10;  L 388.64 375.95&#10;  L 395.73 371.21&#10;  L 404.76 366.09&#10;  L 414.03 361.55&#10;  L 426.71 355.71&#10;  L 430.33 354.11&#10;  L 433.79 352.90&#10;  L 437.15 352.24&#10;  L 441.27 352.02&#10;  L 454.60 351.83&#10;  L 469.50 351.23&#10;  L 471.56 351.31&#10;  L 473.87 351.39&#10;  Z" fill="#000000"/>
<path d="M 501.34 409.06&#10;  L 501.03 410.16&#10;  L 501.11 411.32&#10;  L 501.56 412.46&#10;  L 502.36 413.62&#10;  L 503.58 414.85&#10;  L 505.23 416.14&#10;  L 507.21 417.40&#10;  L 511.70 419.57&#10;  L 520.09 422.55&#10;  L 528.78 425.24&#10;  L 539.69 428.38&#10;  L 547.94 430.83&#10;  L 561.50 434.75&#10;  L 571.02 437.73&#10;  L 585.79 442.74&#10;  L 596.33 446.64&#10;  L 606.57 450.93&#10;  L 616.51 455.62&#10;  L 626.15 460.69&#10;  L 632.86 464.76&#10;  L 639.58 469.50&#10;  L 644.70 473.91&#10;  L 650.38 479.84&#10;  L 652.84 482.82&#10;  L 654.91 485.83&#10;  L 656.60 488.87&#10;  L 657.91 491.94&#10;  L 658.94 495.22&#10;  L 659.67 498.49&#10;  L 660.11 501.76&#10;  L 660.24 505.03&#10;  L 660.24 505.03&#10;  L 660.24 505.03&#10;  L 660.04 508.61&#10;  L 659.49 512.19&#10;  L 658.57 515.77&#10;  L 657.30 519.35&#10;  L 655.33 523.47&#10;  L 652.70 527.71&#10;  L 649.44 532.06&#10;  L 645.52 536.53&#10;  L 641.60 540.40&#10;  L 637.07 544.29&#10;  L 631.92 548.20&#10;  L 626.16 552.13&#10;  L 615.81 558.53&#10;  L 605.56 564.22&#10;  L 595.40 569.22&#10;  L 585.32 573.51&#10;  L 583.01 573.89&#10;  L 561.12 574.03&#10;  L 513.07 573.95&#10;  L 500.08 573.91&#10;  L 497.68 573.79&#10;  L 496.83 573.45&#10;  L 497.54 572.88&#10;  L 499.82 572.09&#10;  L 506.36 570.02&#10;  L 513.01 567.63&#10;  L 519.78 564.91&#10;  L 526.67 561.88&#10;  L 535.72 557.76&#10;  L 544.68 553.47&#10;  L 554.82 547.69&#10;  L 564.42 541.44&#10;  L 573.50 534.73&#10;  L 582.05 527.55&#10;  L 584.92 524.84&#10;  L 587.82 521.81&#10;  L 593.17 515.67&#10;  L 595.89 511.73&#10;  L 598.05 507.68&#10;  L 599.66 503.54&#10;  L 600.70 499.29&#10;  L 600.70 499.29&#10;  L 601.06 496.76&#10;  L 601.07 494.96&#10;  L 600.78 492.98&#10;  L 600.17 490.83&#10;  L 599.25 488.49&#10;  L 597.63 485.26&#10;  L 597.63 485.26&#10;  L 595.40 481.78&#10;  L 592.78 478.52&#10;  L 590.95 476.66&#10;  L 588.77 474.75&#10;  L 583.32 470.75&#10;  L 578.92 467.94&#10;  L 574.41 465.31&#10;  L 574.41 465.31&#10;  L 567.45 461.70&#10;  L 560.26 458.49&#10;  L 546.77 453.19&#10;  L 531.49 447.65&#10;  L 500.81 436.88&#10;  L 489.69 432.56&#10;  L 480.85 428.43&#10;  L 475.84 425.43&#10;  L 470.70 421.64&#10;  L 469.09 420.16&#10;  L 467.39 418.28&#10;  L 466.38 417.11&#10;  L 464.62 414.93&#10;  L 463.75 413.19&#10;  L 463.18 410.95&#10;  L 462.89 408.78&#10;  L 462.86 406.60&#10;  L 463.12 404.50&#10;  L 463.94 401.64&#10;  L 465.28 398.94&#10;  L 467.17 396.29&#10;  L 469.55 393.80&#10;  L 474.08 390.05&#10;  L 479.43 386.45&#10;  L 484.68 383.46&#10;  L 490.78 380.40&#10;  L 497.74 377.28&#10;  L 505.55 374.09&#10;  L 531.03 364.60&#10;  L 562.65 353.65&#10;  L 567.72 352.34&#10;  L 570.16 352.02&#10;  L 572.52 351.91&#10;  L 635.16 352.09&#10;  L 635.72 352.15&#10;  L 635.97 352.34&#10;  L 635.90 352.64&#10;  L 635.52 353.07&#10;  L 634.62 353.59&#10;  L 633.10 354.04&#10;  L 631.66 354.45&#10;  L 531.60 391.36&#10;  L 522.22 395.21&#10;  L 510.93 400.55&#10;  L 507.68 402.42&#10;  L 504.89 404.55&#10;  L 502.79 406.76&#10;  L 501.34 409.06&#10;  Z" fill="#000000"/>
</svg>